<svg width="64" height="64" fill="none" xmlns="http://www.w3.org/2000/svg"><path d="M57.293 0H6.707A6.68 6.68 0 000 6.707v50.586A6.68 6.68 0 006.707 64H57.2a6.68 6.68 0 006.708-6.707V6.707C64 2.981 61.019 0 57.293 0zM43.039 52.635L39.5 42.48H27.295s.187-.745.466-1.304c.28-.559.187-1.118-.28-1.21-.465-.094-.372-.56-.092-.746.28-.187 1.024-.466 2.794-1.304 1.77-.839.652-1.491.094-1.864-.28-.28-.466-.652-.373-1.117h6.8l-4.657-13.229-4.379 12.39s-.559 1.304.093 1.863c.652.56 1.77 1.025-.093 1.863-1.863.839-2.515 1.118-2.795 1.305-.28.186-.465.652.093.745.56.093.466.652.28 1.211l-.373.838-3.726 10.62h-8.012l3.727-10.526.372-.932c.187-.559.187-1.118-.28-1.211-.465-.093-.185-.559.094-.745.28-.187 1.025-.466 2.795-1.305 1.77-.838.652-1.49.093-1.863-.559-.372-.093-1.863-.093-1.863l.093-.186 8.291-23.662h8.012l8.384 23.941c0 .093 0 .093.093.187.28.652.745 1.21 1.304 1.583 1.118.745 3.447 1.118 1.677 1.957-.745.28-1.49.652-2.142 1.117-.28.187-.28.653.28.932.558.28 1.024.373 1.21 1.025.186.652.28.931.28.931v.094l3.726 10.62h-8.012z" fill="url(#paint0_linear)"/><defs><linearGradient id="paint0_linear" x1="32.005" y1="0" x2="32.005" y2="64.009" gradientUnits="userSpaceOnUse"><stop stop-color="#C6C6C6"/><stop offset="1" stop-color="#575756"/></linearGradient></defs></svg>